<?xml version="1.0" standalone="no"?>
<!DOCTYPE svg PUBLIC "-//W3C//DTD SVG 20010904//EN"
 "http://www.w3.org/TR/2001/REC-SVG-20010904/DTD/svg10.dtd">
<svg version="1.0" xmlns="http://www.w3.org/2000/svg"
 width="512.000000pt" height="512.000000pt" viewBox="0 0 512.000000 512.000000"
 preserveAspectRatio="xMidYMid meet">
<metadata>
Created by potrace 1.14, written by Peter Selinger 2001-2017
</metadata>
<g transform="translate(0.000000,512.000000) scale(0.100000,-0.100000)"
fill="#000000" stroke="none">
<path d="M0 2560 l0 -2560 2560 0 2560 0 0 2560 0 2560 -2560 0 -2560 0 0
-2560z m1475 1080 c493 -56 857 -385 961 -870 26 -120 26 -411 1 -528 -104
-474 -430 -789 -897 -868 -149 -24 -387 -16 -523 20 -187 48 -397 170 -513
299 -100 111 -214 319 -231 422 l-6 35 299 0 299 0 24 -46 c34 -63 118 -144
189 -182 198 -106 474 -72 628 75 141 135 203 319 191 558 -11 199 -59 317
-177 435 -84 84 -153 123 -258 146 -124 26 -263 10 -370 -42 -68 -33 -158
-117 -197 -183 l-30 -51 -302 0 -302 0 15 53 c24 79 98 231 149 302 155 218
413 374 685 414 155 23 236 25 365 11z"/>
</g>
</svg>
